# xmcd CD database file
#
# Track frame offsets:
#	150
#	2900
#	22492
#	43175
#	65812
#	84775
#	105942
#	125420
#	148127
#	168670
#	189620
#	200270
#
# Disc length: 2947 seconds
#
# Revision: 0
# Processed by: cddbd v1.5.1PL2 Copyright (c) Steve Scherf et al.
# Submitted via: CDex 1.51
#
DISCID=ab0b810c
DTITLE=林憶蓮 - 都?觸覺 Part III Faces and Places
DYEAR=1900
DGENRE=Other
TTITLE0=序幕
TTITLE1=傾斜
TTITLE2=?令我性感
TTITLE3=埃及?瑰
TTITLE4=風笑痴
TTITLE5=微雨撲巴黎
TTITLE6=夜生活
TTITLE7=前塵
TTITLE8=匆匆
TTITLE9=都市心
TTITLE10=流聲掠影
TTITLE11=再不在乎
EXTD=
EXTT0=
EXTT1=
EXTT2=
EXTT3=
EXTT4=
EXTT5=
EXTT6=
EXTT7=
EXTT8=
EXTT9=
EXTT10=
EXTT11=
PLAYORDER=
